<svg width="80" height="80" viewBox="0 0 80 80" fill="none" xmlns="http://www.w3.org/2000/svg">
<rect width="80" height="80" rx="40" fill="white"/>
<path fill-rule="evenodd" clip-rule="evenodd" d="M70.4217 46.7916C70.6487 47.397 70.3419 48.0718 69.7365 48.2988C68.6959 48.689 67.6977 49.1887 66.6394 49.7184C66.0791 49.9988 65.502 50.2877 64.8928 50.5732C63.2239 51.3554 61.3825 52.0703 59.4664 52.0703C57.5128 52.0703 55.6366 51.0139 54.098 50.1476C54.0527 50.122 54.0076 50.0967 53.9629 50.0715C52.2395 49.1022 50.8822 48.3734 49.6073 48.3734C48.3325 48.3734 46.9751 49.1022 45.2517 50.0715C45.207 50.0967 45.1619 50.122 45.1166 50.1476C43.578 51.0139 41.7019 52.0703 39.7483 52.0703C37.7946 52.0703 35.9185 51.0139 34.3799 50.1476C34.3346 50.122 34.2895 50.0967 34.2448 50.0715C32.5214 49.1022 31.164 48.3734 29.8892 48.3734C28.6129 48.3734 27.254 49.0989 25.5324 50.0645C25.4848 50.0912 25.4368 50.1182 25.3884 50.1453C23.8516 51.0083 21.9823 52.0581 20.0375 52.0703C18.1254 52.0822 16.2859 51.392 14.616 50.6328C14.007 50.3559 13.4299 50.0755 12.8696 49.8033C11.8113 49.2889 10.8129 48.8038 9.77209 48.4265C9.1642 48.2062 8.85005 47.5348 9.07041 46.9269C9.29076 46.3191 9.96219 46.005 10.5701 46.2253C11.7212 46.6425 12.9182 47.223 14.0462 47.77C14.5786 48.0281 15.0956 48.2788 15.5852 48.5014C17.2019 49.2364 18.6489 49.7375 20.0228 49.7289C21.3028 49.7209 22.6637 48.9889 24.3869 48.0224C24.4282 47.9993 24.4696 47.976 24.5114 47.9526C26.0535 47.0868 27.9324 46.032 29.8892 46.032C31.8428 46.032 33.719 47.0884 35.2575 47.9547C35.3029 47.9802 35.3479 48.0056 35.3927 48.0308C37.116 49 38.4734 49.7289 39.7483 49.7289C41.0231 49.7289 42.3805 49 44.1038 48.0308C44.1486 48.0056 44.1936 47.9802 44.239 47.9547C45.7775 47.0884 47.6537 46.032 49.6073 46.032C51.5609 46.032 53.4371 47.0884 54.9756 47.9547C55.021 47.9802 55.066 48.0056 55.1108 48.0308C56.8341 49 58.1915 49.7289 59.4664 49.7289C60.8363 49.7289 62.2814 49.2114 63.899 48.4532C64.3885 48.2238 64.9054 47.9656 65.4378 47.6997C66.5659 47.1362 67.7631 46.5382 68.9143 46.1065C69.5198 45.8795 70.1946 46.1862 70.4217 46.7916Z" fill="#36786F"/>
<path fill-rule="evenodd" clip-rule="evenodd" d="M70.4217 51.7212C70.6487 52.3266 70.3419 53.0014 69.7365 53.2284C68.6959 53.6186 67.6977 54.1183 66.6394 54.648C66.0791 54.9284 65.502 55.2173 64.8928 55.5028C63.2239 56.285 61.3825 56.9998 59.4664 56.9998C57.5128 56.9998 55.6366 55.9434 54.098 55.0771C54.0527 55.0516 54.0076 55.0262 53.9629 55.0011C52.2395 54.0318 50.8822 53.3029 49.6073 53.3029C48.3325 53.3029 46.9751 54.0318 45.2517 55.0011C45.207 55.0262 45.1619 55.0516 45.1166 55.0771C43.578 55.9434 41.7019 56.9998 39.7483 56.9998C37.7946 56.9998 35.9185 55.9434 34.3799 55.0771C34.3346 55.0516 34.2895 55.0262 34.2448 55.0011C32.5214 54.0318 31.164 53.3029 29.8892 53.3029C28.6129 53.3029 27.254 54.0284 25.5324 54.994C25.4848 55.0208 25.4368 55.0477 25.3884 55.0749C23.8516 55.9379 21.9823 56.9877 20.0375 56.9998C18.1254 57.0118 16.2859 56.3216 14.616 55.5624C14.007 55.2855 13.4299 55.0051 12.8696 54.7328C11.8113 54.2185 10.8129 53.7333 9.77209 53.3561C9.1642 53.1357 8.85005 52.4644 9.07041 51.8565C9.29076 51.2487 9.96219 50.9345 10.5701 51.1549C11.7212 51.5721 12.9182 52.1526 14.0462 52.6996C14.5786 52.9577 15.0956 53.2084 15.5852 53.431C17.2019 54.166 18.6489 54.6671 20.0228 54.6585C21.3028 54.6505 22.6637 53.9185 24.3869 52.952C24.4282 52.9288 24.4696 52.9056 24.5114 52.8821C26.0535 52.0164 27.9324 50.9616 29.8892 50.9616C31.8428 50.9616 33.719 52.018 35.2575 52.8843C35.3029 52.9098 35.3479 52.9352 35.3927 52.9603C37.116 53.9296 38.4734 54.6585 39.7483 54.6585C41.0231 54.6585 42.3805 53.9296 44.1038 52.9603C44.1486 52.9352 44.1936 52.9098 44.239 52.8843C45.7775 52.018 47.6537 50.9616 49.6073 50.9616C51.5609 50.9616 53.4371 52.018 54.9756 52.8843C55.021 52.9098 55.066 52.9352 55.1108 52.9603C56.8341 53.9296 58.1915 54.6585 59.4664 54.6585C60.8363 54.6585 62.2814 54.1409 63.899 53.3828C64.3885 53.1533 64.9054 52.8951 65.4378 52.6292C66.5659 52.0658 67.7631 51.4678 68.9143 51.0361C69.5198 50.8091 70.1946 51.1158 70.4217 51.7212Z" fill="#36786F"/>
<path fill-rule="evenodd" clip-rule="evenodd" d="M66.3982 34.8686C66.7101 35.3958 66.5355 36.076 66.0083 36.3878L57.2586 41.5637C56.7314 41.8755 56.0512 41.701 55.7393 41.1738C55.4274 40.6465 55.602 39.9663 56.1292 39.6545L64.8789 34.4787C65.4061 34.1668 66.0863 34.3414 66.3982 34.8686Z" fill="#36786F"/>
<path fill-rule="evenodd" clip-rule="evenodd" d="M50.0326 22.3081C50.6112 22.509 50.9174 23.141 50.7165 23.7197L47.6359 32.5924C47.435 33.1711 46.8031 33.4773 46.2244 33.2763C45.6458 33.0754 45.3396 32.4435 45.5405 31.8648L48.6212 22.9921C48.8221 22.4134 49.454 22.1072 50.0326 22.3081Z" fill="#36786F"/>
<path fill-rule="evenodd" clip-rule="evenodd" d="M29.8599 22.0586C30.4537 21.8626 31.0977 22.1741 31.2983 22.7544L34.4505 31.8737C34.6511 32.454 34.3324 33.0833 33.7386 33.2794C33.1449 33.4754 32.5009 33.1639 32.3003 32.5836L29.148 23.4644C28.9474 22.8841 29.2661 22.2547 29.8599 22.0586Z" fill="#36786F"/>
<path fill-rule="evenodd" clip-rule="evenodd" d="M13.7335 34.8378C14.0623 34.321 14.7479 34.1687 15.2647 34.4975L23.3982 39.6734C23.915 40.0022 24.0674 40.6878 23.7385 41.2045C23.4096 41.7213 22.7241 41.8737 22.2073 41.5448L14.0737 36.3689C13.557 36.0401 13.4046 35.3546 13.7335 34.8378Z" fill="#36786F"/>
<path fill-rule="evenodd" clip-rule="evenodd" d="M53.3962 48.7502C52.1637 43.5637 47.9593 37.1113 39.6941 37.1681C31.3598 37.2255 26.7329 43.7542 25.9947 48.6581C25.9031 49.2663 25.3379 49.6849 24.7322 49.5929C24.1265 49.501 23.7098 48.9334 23.8013 48.3252C24.6652 42.5863 30.0205 35.0071 39.6789 34.9406C49.4065 34.8737 54.1985 42.5292 55.5539 48.2331C55.6961 48.8314 55.3284 49.4322 54.7325 49.575C54.1367 49.7178 53.5384 49.3485 53.3962 48.7502Z" fill="#36786F"/>
</svg>
