<svg width="62" height="35" viewBox="0 0 62 35" fill="white" xmlns="http://www.w3.org/2000/svg">
<path fill-rule="evenodd" clip-rule="evenodd" d="M61.4217 24.7916C61.6487 25.397 61.3419 26.0718 60.7365 26.2988C59.6959 26.689 58.6977 27.1887 57.6394 27.7184C57.0791 27.9988 56.502 28.2877 55.8928 28.5732C54.2239 29.3554 52.3825 30.0703 50.4664 30.0703C48.5128 30.0703 46.6366 29.0139 45.098 28.1476C45.0527 28.122 45.0076 28.0967 44.9629 28.0715C43.2395 27.1022 41.8822 26.3734 40.6073 26.3734C39.3325 26.3734 37.9751 27.1022 36.2517 28.0715C36.207 28.0967 36.1619 28.122 36.1166 28.1476C34.578 29.0139 32.7019 30.0703 30.7483 30.0703C28.7946 30.0703 26.9185 29.0139 25.3799 28.1476C25.3346 28.122 25.2895 28.0967 25.2448 28.0715C23.5214 27.1022 22.164 26.3734 20.8892 26.3734C19.6129 26.3734 18.254 27.0989 16.5324 28.0645C16.4848 28.0912 16.4368 28.1182 16.3884 28.1453C14.8516 29.0083 12.9823 30.0581 11.0375 30.0703C9.12536 30.0822 7.28586 29.392 5.61603 28.6328C5.00697 28.3559 4.42991 28.0755 3.86965 27.8033C2.81126 27.2889 1.81286 26.8038 0.772087 26.4265C0.1642 26.2062 -0.149954 25.5348 0.0704052 24.9269C0.290764 24.3191 0.96219 24.005 1.57008 24.2253C2.72115 24.6425 3.91819 25.223 5.04624 25.77C5.57862 26.0281 6.09563 26.2788 6.58519 26.5014C8.20187 27.2364 9.6489 27.7375 11.0228 27.7289C12.3028 27.7209 13.6637 26.9889 15.3869 26.0224C15.4282 25.9993 15.4696 25.976 15.5114 25.9526C17.0535 25.0868 18.9324 24.032 20.8892 24.032C22.8428 24.032 24.719 25.0884 26.2575 25.9547C26.3029 25.9802 26.3479 26.0056 26.3927 26.0308C28.116 27 29.4734 27.7289 30.7483 27.7289C32.0231 27.7289 33.3805 27 35.1038 26.0308C35.1486 26.0056 35.1936 25.9802 35.239 25.9547C36.7775 25.0884 38.6537 24.032 40.6073 24.032C42.5609 24.032 44.4371 25.0884 45.9756 25.9547C46.021 25.9802 46.066 26.0056 46.1108 26.0308C47.8341 27 49.1915 27.7289 50.4664 27.7289C51.8363 27.7289 53.2814 27.2114 54.899 26.4532C55.3885 26.2238 55.9054 25.9656 56.4378 25.6997C57.5659 25.1362 58.7631 24.5382 59.9143 24.1065C60.5198 23.8795 61.1946 24.1862 61.4217 24.7916Z" fill="white"/>
<path fill-rule="evenodd" clip-rule="evenodd" d="M61.4217 29.7212C61.6487 30.3266 61.3419 31.0014 60.7365 31.2284C59.6959 31.6186 58.6977 32.1183 57.6394 32.648C57.0791 32.9284 56.502 33.2173 55.8928 33.5028C54.2239 34.285 52.3825 34.9998 50.4664 34.9998C48.5128 34.9998 46.6366 33.9434 45.098 33.0771C45.0527 33.0516 45.0076 33.0262 44.9629 33.0011C43.2395 32.0318 41.8822 31.3029 40.6073 31.3029C39.3325 31.3029 37.9751 32.0318 36.2517 33.0011C36.207 33.0262 36.1619 33.0516 36.1166 33.0771C34.578 33.9434 32.7019 34.9998 30.7483 34.9998C28.7946 34.9998 26.9185 33.9434 25.3799 33.0771C25.3346 33.0516 25.2895 33.0262 25.2448 33.0011C23.5214 32.0318 22.164 31.3029 20.8892 31.3029C19.6129 31.3029 18.254 32.0284 16.5324 32.994C16.4848 33.0208 16.4368 33.0477 16.3884 33.0749C14.8516 33.9379 12.9823 34.9877 11.0375 34.9998C9.12536 35.0118 7.28586 34.3216 5.61603 33.5624C5.00697 33.2855 4.42991 33.0051 3.86965 32.7328C2.81126 32.2185 1.81286 31.7333 0.772087 31.3561C0.1642 31.1357 -0.149954 30.4644 0.0704052 29.8565C0.290764 29.2487 0.96219 28.9345 1.57008 29.1549C2.72115 29.5721 3.91819 30.1526 5.04624 30.6996C5.57862 30.9577 6.09563 31.2084 6.58519 31.431C8.20187 32.166 9.6489 32.6671 11.0228 32.6585C12.3028 32.6505 13.6637 31.9185 15.3869 30.952C15.4282 30.9288 15.4696 30.9056 15.5114 30.8821C17.0535 30.0164 18.9324 28.9616 20.8892 28.9616C22.8428 28.9616 24.719 30.018 26.2575 30.8843C26.3029 30.9098 26.3479 30.9352 26.3927 30.9603C28.116 31.9296 29.4734 32.6585 30.7483 32.6585C32.0231 32.6585 33.3805 31.9296 35.1038 30.9603C35.1486 30.9352 35.1936 30.9098 35.239 30.8843C36.7775 30.018 38.6537 28.9616 40.6073 28.9616C42.5609 28.9616 44.4371 30.018 45.9756 30.8843C46.021 30.9098 46.066 30.9352 46.1108 30.9603C47.8341 31.9296 49.1915 32.6585 50.4664 32.6585C51.8363 32.6585 53.2814 32.1409 54.899 31.3828C55.3885 31.1533 55.9054 30.8951 56.4378 30.6292C57.5659 30.0658 58.7631 29.4678 59.9143 29.0361C60.5198 28.8091 61.1946 29.1158 61.4217 29.7212Z" fill="white"/>
<path fill-rule="evenodd" clip-rule="evenodd" d="M57.3982 12.8686C57.7101 13.3958 57.5355 14.076 57.0083 14.3878L48.2586 19.5637C47.7314 19.8755 47.0512 19.701 46.7393 19.1738C46.4274 18.6465 46.602 17.9663 47.1292 17.6545L55.8789 12.4787C56.4061 12.1668 57.0863 12.3414 57.3982 12.8686Z" fill="white"/>
<path fill-rule="evenodd" clip-rule="evenodd" d="M41.0326 0.308124C41.6112 0.509043 41.9174 1.14101 41.7165 1.71965L38.6359 10.5924C38.435 11.1711 37.8031 11.4773 37.2244 11.2763C36.6458 11.0754 36.3396 10.4435 36.5405 9.86482L39.6212 0.992061C39.8221 0.413414 40.454 0.107205 41.0326 0.308124Z" fill="white"/>
<path fill-rule="evenodd" clip-rule="evenodd" d="M20.8599 0.0586452C21.4537 -0.137407 22.0977 0.174099 22.2983 0.754414L25.4505 9.87365C25.6511 10.454 25.3324 11.0833 24.7386 11.2794C24.1449 11.4754 23.5009 11.1639 23.3003 10.5836L20.148 1.46438C19.9474 0.884067 20.2661 0.254697 20.8599 0.0586452Z" fill="white"/>
<path fill-rule="evenodd" clip-rule="evenodd" d="M4.73348 12.8378C5.06234 12.321 5.74788 12.1687 6.26466 12.4975L14.3983 17.6734C14.915 18.0022 15.0674 18.6878 14.7385 19.2045C14.4096 19.7213 13.7241 19.8737 13.2073 19.5448L5.07374 14.3689C4.55695 14.0401 4.40461 13.3546 4.73348 12.8378Z" fill="white"/>
<path fill-rule="evenodd" clip-rule="evenodd" d="M44.3962 26.7502C43.1637 21.5637 38.9593 15.1113 30.6941 15.1681C22.3598 15.2255 17.7329 21.7542 16.9947 26.6581C16.9031 27.2663 16.3379 27.6849 15.7322 27.5929C15.1265 27.501 14.7098 26.9334 14.8013 26.3252C15.6652 20.5863 21.0205 13.0071 30.6789 12.9406C40.4065 12.8737 45.1985 20.5292 46.5539 26.2331C46.6961 26.8314 46.3284 27.4322 45.7325 27.575C45.1367 27.7178 44.5384 27.3485 44.3962 26.7502Z" fill="white"/>
</svg>
