<svg width="268" height="35" viewBox="0 0 268 35" fill="#36786F" xmlns="http://www.w3.org/2000/svg">
<path fill-rule="evenodd" clip-rule="evenodd" d="M61.4217 24.7916C61.6487 25.397 61.3419 26.0718 60.7365 26.2988C59.6959 26.689 58.6977 27.1887 57.6394 27.7184C57.0791 27.9988 56.502 28.2877 55.8928 28.5732C54.2239 29.3554 52.3825 30.0703 50.4664 30.0703C48.5128 30.0703 46.6366 29.0139 45.098 28.1476C45.0527 28.122 45.0076 28.0967 44.9629 28.0715C43.2395 27.1022 41.8822 26.3734 40.6073 26.3734C39.3325 26.3734 37.9751 27.1022 36.2517 28.0715C36.207 28.0967 36.1619 28.122 36.1166 28.1476C34.578 29.0139 32.7019 30.0703 30.7483 30.0703C28.7946 30.0703 26.9185 29.0139 25.3799 28.1476C25.3346 28.122 25.2895 28.0967 25.2448 28.0715C23.5214 27.1022 22.164 26.3734 20.8892 26.3734C19.6129 26.3734 18.254 27.0989 16.5324 28.0645C16.4848 28.0912 16.4368 28.1182 16.3884 28.1453C14.8516 29.0083 12.9823 30.0581 11.0375 30.0703C9.12536 30.0822 7.28586 29.392 5.61603 28.6328C5.00697 28.3559 4.42991 28.0755 3.86965 27.8033C2.81126 27.2889 1.81286 26.8038 0.772087 26.4265C0.1642 26.2062 -0.149954 25.5348 0.0704052 24.9269C0.290764 24.3191 0.96219 24.005 1.57008 24.2253C2.72115 24.6425 3.91819 25.223 5.04624 25.77C5.57862 26.0281 6.09563 26.2788 6.58519 26.5014C8.20187 27.2364 9.6489 27.7375 11.0228 27.7289C12.3028 27.7209 13.6637 26.9889 15.3869 26.0224C15.4282 25.9993 15.4696 25.976 15.5114 25.9526C17.0535 25.0868 18.9324 24.032 20.8892 24.032C22.8428 24.032 24.719 25.0884 26.2575 25.9547C26.3029 25.9802 26.3479 26.0056 26.3927 26.0308C28.116 27 29.4734 27.7289 30.7483 27.7289C32.0231 27.7289 33.3805 27 35.1038 26.0308C35.1486 26.0056 35.1936 25.9802 35.239 25.9547C36.7775 25.0884 38.6537 24.032 40.6073 24.032C42.5609 24.032 44.4371 25.0884 45.9756 25.9547C46.021 25.9802 46.066 26.0056 46.1108 26.0308C47.8341 27 49.1915 27.7289 50.4664 27.7289C51.8363 27.7289 53.2814 27.2114 54.899 26.4532C55.3885 26.2238 55.9054 25.9656 56.4378 25.6997C57.5659 25.1362 58.7631 24.5382 59.9143 24.1065C60.5198 23.8795 61.1946 24.1862 61.4217 24.7916Z" fill="#36786F"/>
<path fill-rule="evenodd" clip-rule="evenodd" d="M61.4217 29.7212C61.6487 30.3266 61.3419 31.0014 60.7365 31.2284C59.6959 31.6186 58.6977 32.1183 57.6394 32.648C57.0791 32.9284 56.502 33.2173 55.8928 33.5028C54.2239 34.285 52.3825 34.9998 50.4664 34.9998C48.5128 34.9998 46.6366 33.9434 45.098 33.0771C45.0527 33.0516 45.0076 33.0262 44.9629 33.0011C43.2395 32.0318 41.8822 31.3029 40.6073 31.3029C39.3325 31.3029 37.9751 32.0318 36.2517 33.0011C36.207 33.0262 36.1619 33.0516 36.1166 33.0771C34.578 33.9434 32.7019 34.9998 30.7483 34.9998C28.7946 34.9998 26.9185 33.9434 25.3799 33.0771C25.3346 33.0516 25.2895 33.0262 25.2448 33.0011C23.5214 32.0318 22.164 31.3029 20.8892 31.3029C19.6129 31.3029 18.254 32.0284 16.5324 32.994C16.4848 33.0208 16.4368 33.0477 16.3884 33.0749C14.8516 33.9379 12.9823 34.9877 11.0375 34.9998C9.12536 35.0118 7.28586 34.3216 5.61603 33.5624C5.00697 33.2855 4.42991 33.0051 3.86965 32.7328C2.81126 32.2185 1.81286 31.7333 0.772087 31.3561C0.1642 31.1357 -0.149954 30.4644 0.0704052 29.8565C0.290764 29.2487 0.96219 28.9345 1.57008 29.1549C2.72115 29.5721 3.91819 30.1526 5.04624 30.6996C5.57862 30.9577 6.09563 31.2084 6.58519 31.431C8.20187 32.166 9.6489 32.6671 11.0228 32.6585C12.3028 32.6505 13.6637 31.9185 15.3869 30.952C15.4282 30.9288 15.4696 30.9056 15.5114 30.8821C17.0535 30.0164 18.9324 28.9616 20.8892 28.9616C22.8428 28.9616 24.719 30.018 26.2575 30.8843C26.3029 30.9098 26.3479 30.9352 26.3927 30.9603C28.116 31.9296 29.4734 32.6585 30.7483 32.6585C32.0231 32.6585 33.3805 31.9296 35.1038 30.9603C35.1486 30.9352 35.1936 30.9098 35.239 30.8843C36.7775 30.018 38.6537 28.9616 40.6073 28.9616C42.5609 28.9616 44.4371 30.018 45.9756 30.8843C46.021 30.9098 46.066 30.9352 46.1108 30.9603C47.8341 31.9296 49.1915 32.6585 50.4664 32.6585C51.8363 32.6585 53.2814 32.1409 54.899 31.3828C55.3885 31.1533 55.9054 30.8951 56.4378 30.6292C57.5659 30.0658 58.7631 29.4678 59.9143 29.0361C60.5198 28.8091 61.1946 29.1158 61.4217 29.7212Z" fill="#36786F"/>
<path fill-rule="evenodd" clip-rule="evenodd" d="M57.3982 12.8686C57.7101 13.3958 57.5355 14.076 57.0083 14.3878L48.2586 19.5637C47.7314 19.8755 47.0512 19.701 46.7393 19.1738C46.4274 18.6465 46.602 17.9663 47.1292 17.6545L55.8789 12.4787C56.4061 12.1668 57.0863 12.3414 57.3982 12.8686Z" fill="#36786F"/>
<path fill-rule="evenodd" clip-rule="evenodd" d="M41.0326 0.308124C41.6112 0.509043 41.9174 1.14101 41.7165 1.71965L38.6359 10.5924C38.435 11.1711 37.8031 11.4773 37.2244 11.2763C36.6458 11.0754 36.3396 10.4435 36.5405 9.86482L39.6212 0.992061C39.8221 0.413414 40.454 0.107205 41.0326 0.308124Z" fill="#36786F"/>
<path fill-rule="evenodd" clip-rule="evenodd" d="M20.8599 0.0586452C21.4537 -0.137407 22.0977 0.174099 22.2983 0.754414L25.4505 9.87365C25.6511 10.454 25.3324 11.0833 24.7386 11.2794C24.1449 11.4754 23.5009 11.1639 23.3003 10.5836L20.148 1.46438C19.9474 0.884067 20.2661 0.254697 20.8599 0.0586452Z" fill="#36786F"/>
<path fill-rule="evenodd" clip-rule="evenodd" d="M4.73348 12.8378C5.06234 12.321 5.74788 12.1687 6.26466 12.4975L14.3983 17.6734C14.915 18.0022 15.0674 18.6878 14.7385 19.2045C14.4096 19.7213 13.7241 19.8737 13.2073 19.5448L5.07374 14.3689C4.55695 14.0401 4.40461 13.3546 4.73348 12.8378Z" fill="#36786F"/>
<path fill-rule="evenodd" clip-rule="evenodd" d="M44.3962 26.7502C43.1637 21.5637 38.9593 15.1113 30.6941 15.1681C22.3598 15.2255 17.7329 21.7542 16.9947 26.6581C16.9031 27.2663 16.3379 27.6849 15.7322 27.5929C15.1265 27.501 14.7098 26.9334 14.8013 26.3252C15.6652 20.5863 21.0205 13.0071 30.6789 12.9406C40.4065 12.8737 45.1985 20.5292 46.5539 26.2331C46.6961 26.8314 46.3284 27.4322 45.7325 27.575C45.1367 27.7178 44.5384 27.3485 44.3962 26.7502Z" fill="#36786F"/>
<path d="M264.94 28.4989V6.50095H267.713V28.4989H264.94Z" fill="#36786F"/>
<path d="M254.175 28.807C252.737 28.807 251.443 28.4681 250.293 27.7903C249.143 27.1125 248.229 26.1985 247.551 25.0483C246.873 23.8775 246.534 22.5732 246.534 21.1355C246.534 19.7182 246.873 18.4448 247.551 17.3151C248.229 16.1649 249.143 15.2509 250.293 14.573C251.443 13.8952 252.737 13.5563 254.175 13.5563C255.592 13.5563 256.876 13.8952 258.026 14.573C259.197 15.2303 260.121 16.1341 260.799 17.2843C261.477 18.4345 261.816 19.7182 261.816 21.1355C261.816 22.5732 261.477 23.8775 260.799 25.0483C260.121 26.1985 259.197 27.1125 258.026 27.7903C256.876 28.4681 255.592 28.807 254.175 28.807ZM254.175 26.1266C255.099 26.1266 255.921 25.9109 256.64 25.4796C257.359 25.0483 257.923 24.4629 258.334 23.7235C258.745 22.9635 258.95 22.1008 258.95 21.1355C258.95 20.1906 258.735 19.3485 258.303 18.6091C257.893 17.8697 257.328 17.2946 256.609 16.8838C255.911 16.4524 255.099 16.2368 254.175 16.2368C253.251 16.2368 252.429 16.4524 251.71 16.8838C250.991 17.2946 250.426 17.8697 250.016 18.6091C249.605 19.3485 249.399 20.1906 249.399 21.1355C249.399 22.1008 249.605 22.9635 250.016 23.7235C250.426 24.4629 250.991 25.0483 251.71 25.4796C252.429 25.9109 253.251 26.1266 254.175 26.1266Z" fill="#36786F"/>
<path d="M236.724 28.807C235.286 28.807 233.992 28.4681 232.842 27.7903C231.692 27.1125 230.778 26.1985 230.1 25.0483C229.422 23.8775 229.083 22.5732 229.083 21.1355C229.083 19.7182 229.422 18.4448 230.1 17.3151C230.778 16.1649 231.692 15.2509 232.842 14.573C233.992 13.8952 235.286 13.5563 236.724 13.5563C238.141 13.5563 239.425 13.8952 240.575 14.573C241.746 15.2303 242.67 16.1341 243.348 17.2843C244.026 18.4345 244.365 19.7182 244.365 21.1355C244.365 22.5732 244.026 23.8775 243.348 25.0483C242.67 26.1985 241.746 27.1125 240.575 27.7903C239.425 28.4681 238.141 28.807 236.724 28.807ZM236.724 26.1266C237.648 26.1266 238.47 25.9109 239.189 25.4796C239.908 25.0483 240.473 24.4629 240.883 23.7235C241.294 22.9635 241.5 22.1008 241.5 21.1355C241.5 20.1906 241.284 19.3485 240.853 18.6091C240.442 17.8697 239.877 17.2946 239.158 16.8838C238.46 16.4524 237.648 16.2368 236.724 16.2368C235.8 16.2368 234.978 16.4524 234.259 16.8838C233.54 17.2946 232.976 17.8697 232.565 18.6091C232.154 19.3485 231.949 20.1906 231.949 21.1355C231.949 22.1008 232.154 22.9635 232.565 23.7235C232.976 24.4629 233.54 25.0483 234.259 25.4796C234.978 25.9109 235.8 26.1266 236.724 26.1266Z" fill="#36786F"/>
<path d="M221.006 28.499V7.73338H223.902V28.499H221.006ZM213.735 9.7668V7.11719H231.143V9.7668H213.735Z" fill="#36786F"/>
<path d="M202.39 28.4989V19.9647C202.39 18.8556 202.041 17.9416 201.343 17.2227C200.644 16.5038 199.741 16.1443 198.631 16.1443C197.892 16.1443 197.235 16.3086 196.66 16.6373C196.085 16.9659 195.633 17.4178 195.304 17.9929C194.975 18.568 194.811 19.2253 194.811 19.9647L193.671 19.3177C193.671 18.2086 193.918 17.2227 194.411 16.36C194.903 15.4973 195.592 14.8195 196.475 14.3266C197.358 13.8131 198.354 13.5563 199.463 13.5563C200.572 13.5563 201.548 13.8336 202.39 14.3882C203.253 14.9428 203.931 15.6719 204.424 16.5757C204.917 17.4589 205.163 18.4037 205.163 19.4101V28.4989H202.39ZM192.038 28.4989V13.8644H194.811V28.4989H192.038Z" fill="#36786F"/>
<path d="M181.273 28.807C179.835 28.807 178.541 28.4681 177.391 27.7903C176.241 27.1125 175.327 26.1985 174.649 25.0483C173.971 23.8775 173.632 22.5732 173.632 21.1355C173.632 19.7182 173.971 18.4448 174.649 17.3151C175.327 16.1649 176.241 15.2509 177.391 14.573C178.541 13.8952 179.835 13.5563 181.273 13.5563C182.69 13.5563 183.974 13.8952 185.124 14.573C186.295 15.2303 187.219 16.1341 187.897 17.2843C188.575 18.4345 188.914 19.7182 188.914 21.1355C188.914 22.5732 188.575 23.8775 187.897 25.0483C187.219 26.1985 186.295 27.1125 185.124 27.7903C183.974 28.4681 182.69 28.807 181.273 28.807ZM181.273 26.1266C182.197 26.1266 183.019 25.9109 183.738 25.4796C184.457 25.0483 185.022 24.4629 185.432 23.7235C185.843 22.9635 186.049 22.1008 186.049 21.1355C186.049 20.1906 185.833 19.3485 185.402 18.6091C184.991 17.8697 184.426 17.2946 183.707 16.8838C183.009 16.4524 182.197 16.2368 181.273 16.2368C180.349 16.2368 179.527 16.4524 178.808 16.8838C178.089 17.2946 177.525 17.8697 177.114 18.6091C176.703 19.3485 176.498 20.1906 176.498 21.1355C176.498 22.1008 176.703 22.9635 177.114 23.7235C177.525 24.4629 178.089 25.0483 178.808 25.4796C179.527 25.9109 180.349 26.1266 181.273 26.1266Z" fill="#36786F"/>
<path d="M167.728 28.499V13.8645H170.501V28.499H167.728ZM169.115 10.9376C168.601 10.9376 168.18 10.7733 167.851 10.4446C167.523 10.0955 167.359 9.66413 167.359 9.15064C167.359 8.65769 167.523 8.2469 167.851 7.91826C168.18 7.56909 168.601 7.3945 169.115 7.3945C169.628 7.3945 170.049 7.56909 170.378 7.91826C170.706 8.2469 170.871 8.65769 170.871 9.15064C170.871 9.66413 170.706 10.0955 170.378 10.4446C170.049 10.7733 169.628 10.9376 169.115 10.9376Z" fill="#36786F"/>
<path d="M158.604 28.499V7.73343H161.376V28.499H158.604ZM154.999 16.3909V13.8645H164.981V16.3909H154.999Z" fill="#36786F"/>
<path d="M148.147 28.807C146.709 28.807 145.405 28.4681 144.234 27.7903C143.084 27.1125 142.17 26.1985 141.492 25.0483C140.835 23.8775 140.506 22.5835 140.506 21.1663C140.506 19.7285 140.835 18.4345 141.492 17.2843C142.17 16.1341 143.084 15.2303 144.234 14.573C145.405 13.8952 146.709 13.5563 148.147 13.5563C149.277 13.5563 150.324 13.772 151.29 14.2033C152.255 14.6141 153.087 15.22 153.785 16.0211L151.937 17.8697C151.485 17.3356 150.93 16.9351 150.273 16.6681C149.636 16.3805 148.927 16.2368 148.147 16.2368C147.223 16.2368 146.401 16.4524 145.682 16.8838C144.963 17.2946 144.398 17.8697 143.988 18.6091C143.577 19.3485 143.372 20.2009 143.372 21.1663C143.372 22.1316 143.577 22.984 143.988 23.7235C144.398 24.4629 144.963 25.0483 145.682 25.4796C146.401 25.9109 147.223 26.1266 148.147 26.1266C148.927 26.1266 149.636 25.9931 150.273 25.7261C150.93 25.4385 151.495 25.0277 151.967 24.4937L153.785 26.3423C153.107 27.1228 152.275 27.7287 151.29 28.16C150.324 28.5914 149.277 28.807 148.147 28.807Z" fill="#36786F"/>
<path d="M131.721 28.807C130.263 28.807 128.948 28.4784 127.778 27.8211C126.607 27.1433 125.683 26.2293 125.005 25.0791C124.327 23.9289 123.988 22.6246 123.988 21.1663C123.988 19.7285 124.317 18.4345 124.974 17.2843C125.652 16.1341 126.556 15.2303 127.685 14.573C128.836 13.8952 130.119 13.5563 131.536 13.5563C132.892 13.5563 134.083 13.8644 135.11 14.4806C136.158 15.0968 136.969 15.9492 137.544 17.0378C138.14 18.1264 138.438 19.3588 138.438 20.7349C138.438 20.9403 138.428 21.1663 138.407 21.4128C138.386 21.6387 138.345 21.9057 138.284 22.2138H125.929V19.9031H136.805L135.788 20.7966C135.788 19.8107 135.614 18.9788 135.264 18.301C134.915 17.6026 134.422 17.0686 133.786 16.6989C133.149 16.3086 132.379 16.1135 131.475 16.1135C130.53 16.1135 129.698 16.3189 128.979 16.7297C128.26 17.1405 127.706 17.7156 127.316 18.455C126.925 19.1945 126.73 20.0674 126.73 21.0738C126.73 22.1008 126.936 23.0046 127.346 23.7851C127.757 24.545 128.343 25.1407 129.103 25.572C129.862 25.9828 130.735 26.1882 131.721 26.1882C132.543 26.1882 133.293 26.0444 133.97 25.7569C134.669 25.4693 135.264 25.038 135.757 24.4629L137.544 26.2807C136.846 27.1022 135.983 27.7287 134.956 28.16C133.95 28.5914 132.872 28.807 131.721 28.807Z" fill="#36786F"/>
<path d="M109.377 28.4989V11.8926C109.377 10.8656 109.613 9.92082 110.086 9.05815C110.558 8.19549 111.236 7.50741 112.119 6.99392C113.023 6.45989 114.06 6.19287 115.231 6.19287V8.78087C114.224 8.78087 113.454 9.08896 112.92 9.70515C112.407 10.3008 112.15 11.03 112.15 11.8926V28.4989H109.377ZM105.772 16.3908V13.8644H119.236V16.3908H105.772ZM118.096 28.4989V6.37773H120.869V28.4989H118.096Z" fill="#36786F"/>
<path d="M97.9934 28.807C96.5351 28.807 95.2206 28.4784 94.0498 27.8211C92.8791 27.1433 91.9548 26.2293 91.277 25.0791C90.5992 23.9289 90.2603 22.6246 90.2603 21.1663C90.2603 19.7285 90.5889 18.4345 91.2462 17.2843C91.924 16.1341 92.8277 15.2303 93.9574 14.573C95.1076 13.8952 96.3913 13.5563 97.8086 13.5563C99.1642 13.5563 100.355 13.8644 101.382 14.4806C102.43 15.0968 103.241 15.9492 103.816 17.0378C104.412 18.1264 104.71 19.3588 104.71 20.7349C104.71 20.9403 104.7 21.1663 104.679 21.4128C104.659 21.6387 104.617 21.9057 104.556 22.2138H92.2013V19.9031H103.077L102.06 20.7966C102.06 19.8107 101.886 18.9788 101.537 18.301C101.187 17.6026 100.694 17.0686 100.058 16.6989C99.4209 16.3086 98.6507 16.1135 97.747 16.1135C96.8021 16.1135 95.9703 16.3189 95.2514 16.7297C94.5325 17.1405 93.9779 17.7156 93.5877 18.455C93.1974 19.1945 93.0023 20.0674 93.0023 21.0738C93.0023 22.1008 93.2077 23.0046 93.6185 23.7851C94.0293 24.545 94.6147 25.1407 95.3746 25.572C96.1346 25.9828 97.0075 26.1882 97.9934 26.1882C98.815 26.1882 99.5647 26.0444 100.243 25.7569C100.941 25.4693 101.537 25.038 102.029 24.4629L103.816 26.2807C103.118 27.1022 102.255 27.7287 101.228 28.16C100.222 28.5914 99.1437 28.807 97.9934 28.807Z" fill="#36786F"/>
<path d="M75.1456 19.1945V16.7606H80.9378C82.1907 16.7606 83.1561 16.4422 83.8339 15.8055C84.5117 15.1687 84.8506 14.3061 84.8506 13.2175C84.8506 12.1905 84.5117 11.3381 83.8339 10.6603C83.1766 9.98247 82.2215 9.64356 80.9686 9.64356H75.1456V7.11719H81.061C82.4166 7.11719 83.5977 7.3842 84.6041 7.91823C85.6105 8.43173 86.3808 9.14034 86.9148 10.0441C87.4694 10.9478 87.7467 11.9851 87.7467 13.1558C87.7467 14.3677 87.4694 15.4255 86.9148 16.3292C86.3808 17.233 85.6105 17.9416 84.6041 18.4551C83.5977 18.948 82.4166 19.1945 81.061 19.1945H75.1456ZM73.2046 28.499V7.11719H76.1007V28.499H73.2046ZM85.5284 28.499L77.7644 18.9172L80.5064 17.9621L89.1947 28.499H85.5284Z" fill="#36786F"/>
</svg>
