<svg width="215" height="178" viewBox="0 0 215 178" fill="none" xmlns="http://www.w3.org/2000/svg">
<g clip-path="url(#clip0_595_14942)">
<path d="M95.8455 33.8255C95.8041 33.8255 95.7626 33.824 95.7209 33.8214C92.9758 33.6451 83.5827 32.3169 77.9729 22.621C77.5585 21.9054 77.6403 20.9947 78.1767 20.3557C82.8615 16.5471 86.5211 12.4251 88.6811 7.84498C89.0712 7.38032 89.6566 7.12632 90.249 7.13679C90.8573 7.15117 91.4178 7.43747 91.787 7.9223C94.4503 11.4207 99.7085 17.6136 104.999 19.7849C105.594 20.0292 106.024 20.5249 106.18 21.1456C106.335 21.7612 106.192 22.3958 105.787 22.8866L97.3723 33.1009C96.994 33.5603 96.4305 33.8255 95.8455 33.8255Z" fill="#E6E6E6"/>
<path d="M79.9133 20.9708C79.77 21.1419 79.7439 21.3858 79.8483 21.5785C84.9232 30.9199 93.9963 31.6527 95.7635 31.7047C95.9337 31.7144 96.0933 31.6378 96.2013 31.5067L104.556 21.366C104.674 21.2222 104.711 21.0388 104.656 20.8617C104.601 20.6839 104.467 20.5514 104.286 20.4991C98.6118 18.8414 92.6582 11.1633 90.9687 8.84934C90.8699 8.71413 90.7172 8.63308 90.5502 8.62747C90.3785 8.62579 90.2221 8.69321 90.1128 8.8232C87.6954 13.5349 84.3106 17.5943 79.9133 20.9708Z" fill="white"/>
<path d="M84.1206 23.159L91.6938 15.4402C92.2115 14.9126 91.4005 14.1006 90.8821 14.6289L83.3089 22.3476C82.7912 22.8753 83.6023 23.6873 84.1206 23.159Z" fill="#E6E6E6"/>
<path d="M88.6913 25.3335C90.7814 23.4608 92.5977 21.2926 94.085 18.9134C94.4776 18.2853 93.4848 17.7087 93.0938 18.3342C91.656 20.6344 89.9001 22.7119 87.8796 24.5221C87.3284 25.016 88.1424 25.8253 88.6913 25.3335Z" fill="#E6E6E6"/>
<path d="M92.8109 27.9376C94.7138 25.8304 96.3337 23.4787 97.609 20.9419C97.9398 20.2838 96.9499 19.7021 96.6178 20.3627C95.3857 22.8137 93.8382 25.0899 91.9992 27.1262C91.5053 27.6732 92.3146 28.4871 92.8109 27.9376Z" fill="#E6E6E6"/>
<path d="M102.733 36.8856C102.692 36.8856 102.65 36.8841 102.608 36.8815C99.8633 36.7052 90.4701 35.3769 84.8603 25.6811C84.4459 24.9654 84.5278 24.0548 85.0641 23.4157C89.5149 19.5569 92.8659 15.3373 95.5686 10.905C95.9587 10.4404 96.544 10.1864 97.1365 10.1968C97.7448 10.2112 98.3053 10.4975 98.6744 10.9824C101.338 14.4807 106.596 20.6737 111.887 22.845C112.481 23.0893 112.912 23.5849 113.068 24.2057C113.223 24.8213 113.079 25.4559 112.675 25.9467L104.26 36.161C103.881 36.6204 103.318 36.8856 102.733 36.8856Z" fill="#E6E6E6"/>
<path d="M86.8008 24.0309C86.6575 24.2019 86.6313 24.4458 86.7358 24.6386C91.8107 33.9799 100.884 34.7128 102.651 34.7647C102.821 34.7744 102.981 34.6979 103.089 34.5667L111.443 24.4261C111.562 24.2822 111.598 24.0989 111.544 23.9218C111.489 23.744 111.354 23.6114 111.174 23.5591C105.499 21.9014 99.5457 14.2234 97.8562 11.9094C97.7573 11.7742 97.6047 11.6931 97.4376 11.6875C97.266 11.6859 97.1096 11.7533 97.0003 11.8833C94.1043 16.6935 90.8466 20.9575 86.8008 24.0309Z" fill="white"/>
<path d="M91.0081 26.2191L98.5813 18.5003C99.0989 17.9727 98.2879 17.1606 97.7696 17.6889L90.1964 25.4077C89.6787 25.9353 90.4897 26.7474 91.0081 26.2191Z" fill="#E6E6E6"/>
<path d="M95.5788 28.3936C97.6689 26.5209 99.4852 24.3526 100.972 21.9734C101.365 21.3454 100.372 20.7687 99.9813 21.3943C98.5434 23.6945 96.7875 25.772 94.7671 27.5822C94.2158 28.0761 95.0298 28.8854 95.5788 28.3936Z" fill="#E6E6E6"/>
<path d="M99.6983 30.9977C101.601 28.8905 103.221 26.5387 104.496 24.0019C104.827 23.3439 103.837 22.7622 103.505 23.4228C102.273 25.8738 100.726 28.1499 98.8866 30.1863C98.3927 30.7332 99.202 31.5472 99.6983 30.9977Z" fill="#E6E6E6"/>
<path d="M178.111 108.028C178.07 108.028 178.028 108.026 177.987 108.024C175.241 107.847 165.848 106.519 160.238 96.8232C159.824 96.1075 159.906 95.1969 160.442 94.5578L170.947 82.0471C171.337 81.5825 171.922 81.3285 172.515 81.3389C173.123 81.3533 173.904 81.5336 174.053 82.1244C175.263 86.9256 180.475 93.1601 187.265 93.9871C187.903 94.0648 188.29 94.727 188.446 95.3478C188.601 95.9634 188.458 96.598 188.053 97.0888L179.638 107.303C179.26 107.762 178.696 108.028 178.111 108.028Z" fill="#E6E6E6"/>
<path d="M162.179 95.173C162.036 95.344 162.009 95.5879 162.114 95.7807C167.189 105.122 176.262 105.855 178.029 105.907C178.199 105.917 178.359 105.84 178.467 105.709L186.822 95.5681C186.94 95.4243 186.976 95.2409 186.922 95.0639C186.867 94.8861 186.739 94.71 186.552 94.7012C179.329 94.3625 173.528 86.5548 173.234 83.0515C173.22 82.8846 172.983 82.8352 172.816 82.8296C172.644 82.8279 172.488 82.8954 172.378 83.0253L162.179 95.173Z" fill="white"/>
<path d="M166.386 97.3611L173.959 89.6424C174.477 89.1148 173.666 88.3027 173.148 88.831L165.575 96.5498C165.057 97.0774 165.868 97.8894 166.386 97.3611Z" fill="#E6E6E6"/>
<path d="M170.957 99.5356C173.047 97.663 174.863 95.4947 176.351 93.1155C176.743 92.4875 175.75 91.9108 175.359 92.5364C173.922 94.8366 172.166 96.9141 170.145 98.7243C169.594 99.2182 170.408 100.027 170.957 99.5356Z" fill="#E6E6E6"/>
<path d="M175.076 102.14C176.979 100.033 178.599 97.6808 179.875 95.144C180.205 94.4859 179.216 93.9043 178.883 94.5649C177.651 97.0159 176.104 99.292 174.265 101.328C173.771 101.875 174.58 102.689 175.076 102.14Z" fill="#E6E6E6"/>
<path d="M146.642 174.715L142.105 174.714L139.946 157.218L146.643 157.219L146.642 174.715Z" fill="#FFB6B6"/>
<path d="M131.096 174.612C130.954 174.85 130.88 175.617 130.88 175.894C130.88 176.744 131.569 177.433 132.42 177.433H146.473C147.053 177.433 147.523 176.963 147.523 176.383V175.798C147.523 175.798 148.218 174.041 146.787 171.874C146.787 171.874 145.008 173.571 142.35 170.914L141.567 169.494L135.893 173.642L132.748 174.029C132.06 174.114 131.45 174.016 131.096 174.612Z" fill="#2F2E41"/>
<path d="M188.544 165.763L184.679 168.14L173.669 154.369L179.374 150.861L188.544 165.763Z" fill="#FFB6B6"/>
<path d="M175.248 173.819C175.253 174.095 175.592 174.788 175.737 175.024C176.182 175.748 177.131 175.974 177.855 175.528L189.824 168.168C190.319 167.864 190.473 167.217 190.169 166.723L189.862 166.225C189.862 166.225 189.533 164.364 187.178 163.268C187.178 163.268 186.552 165.645 182.896 164.774L181.484 163.975L178.826 170.48L176.35 172.457C175.808 172.89 175.238 173.126 175.248 173.819Z" fill="#2F2E41"/>
<path d="M160.023 92.883C159.799 91.9036 159.816 90.9529 160.027 90.165L157.292 80.9748L161.744 79.7683L164.038 89.2208C164.57 89.8338 164.999 90.6795 165.224 91.6589C165.737 93.8964 164.989 95.9842 163.553 96.3222C162.117 96.6602 160.537 95.1204 160.023 92.883Z" fill="#FFB6B6"/>
<path d="M134.695 31.6235C134.695 31.6235 141.869 28.5021 145.875 33.0128C149.521 37.1184 156.922 49.4729 156.162 50.6749L163.449 85.0925L158.048 86.7558L143.72 47.1676L134.695 31.6235Z" fill="#1d4ed8"/>
<path d="M126.794 82.6292L130.49 125.736L139.423 165.765L148.972 164.841L144.351 121.118L147.18 82.261L126.794 82.6292Z" fill="#2F2E41"/>
<path d="M127.558 91.9828L150.581 128.62L176.849 160.123L184.917 154.933L160.79 118.172C157.098 101.979 153.009 86.9889 145.515 82.3293L127.558 91.9828Z" fill="#2F2E41"/>
<path d="M128.902 92.1618C127.822 92.1618 126.776 91.7816 125.923 91.0592C124.779 90.0892 124.183 88.6752 124.288 87.1796L126.296 67.9183L125.529 46.8852L125.534 46.8624L127.918 35.4327C127.942 35.0695 128.018 34.6849 128.141 34.3157L131.663 23.7313C132.296 21.8275 134.07 20.5483 136.077 20.5483H139.191C140.751 20.5483 142.198 21.3225 143.063 22.6193L145.789 26.7071C145.97 26.9787 146.123 27.2702 146.243 27.5737L152.262 42.7578C152.453 43.2399 152.561 43.7469 152.585 44.2648L154.452 86.4051C154.514 87.8041 153.951 89.143 152.907 90.0783C151.87 91.0084 150.486 91.4196 149.114 91.2078C141.254 89.9946 134.376 90.9867 129.989 92.033C129.627 92.1192 129.262 92.1618 128.902 92.1618Z" fill="#1d4ed8"/>
<path d="M128.026 50.299L122.79 46.2962C122.79 46.2962 125.254 24.4346 131.722 24.4346C138.191 24.4346 141.579 20.7397 141.579 20.7397C141.579 20.7397 164.681 53.0701 158.213 56.765C151.744 60.4599 142.811 58.6125 142.811 58.6125L139.665 30.9938C139.278 29.5338 137.268 29.3757 136.658 30.7573L128.026 50.299Z" fill="#3F3D56"/>
<path d="M136.64 19.6065C141.585 19.6065 145.594 15.5993 145.594 10.6563C145.594 5.7132 141.585 1.70605 136.64 1.70605C131.695 1.70605 127.687 5.7132 127.687 10.6563C127.687 15.5993 131.695 19.6065 136.64 19.6065Z" fill="#FFB6B6"/>
<path d="M143.731 17.4222C142.923 17.7237 141.685 18.1924 140.877 18.4938C140.124 16.9928 141.047 16.2139 141.143 14.5374C141.175 13.9779 141.255 13.4178 141.209 12.8593C141.163 12.3008 140.971 11.7276 140.549 11.358C139.905 10.7927 138.831 10.8846 138.207 11.4726C137.583 12.0605 137.405 13.032 137.66 13.8504C135.205 12.7896 133.619 10.0065 133.958 7.35454C133.225 7.06725 132.473 6.77608 131.686 6.7541C130.899 6.73211 130.055 7.03239 129.636 7.69861C129.342 8.16576 129.283 8.75876 128.953 9.20126C128.417 9.92025 127.257 9.97597 126.545 9.43057C125.833 8.88518 125.56 7.89404 125.712 7.0101C125.864 6.12616 124.759 4.32227 125.378 3.67277C125.8 3.2297 127.895 3.8575 128.366 3.46665C128.795 3.11006 129.226 2.75228 129.7 2.45646C130.301 2.08095 130.967 1.80901 131.659 1.65621C132.314 1.51167 132.986 1.47371 133.656 1.43621C134.336 1.39813 135.276 0.0453736 135.955 0.00729726C137.956 -0.104801 139.745 1.10303 141.664 1.67807C143.584 2.2531 144.792 3.9044 145.855 5.60298C147.368 8.02245 146.854 10.6735 145.812 12.987C145.554 13.5589 146.418 14.1598 146.29 14.7738C146.171 15.3445 145.637 15.7578 145.512 16.3273C145.405 16.8142 144.772 16.2501 144.622 16.7252C144.491 17.1352 144.108 17.4247 143.698 17.5556C143.288 17.6865 142.849 17.6838 142.419 17.6799" fill="#2F2E41"/>
<path d="M141.809 20.51L142.125 20.7397L142.92 21.3187C145.312 23.0594 145.09 26.6932 142.503 28.1295L139.269 22.9654" fill="#3F3D56"/>
<path d="M96.6538 31.162C97.4612 31.6946 98.0814 32.3654 98.4586 33.0497L106.471 37.6382L104.176 41.3856L96.2946 36.3276C95.5169 36.25 94.656 35.9439 93.8486 35.4112C92.0039 34.1944 91.1365 32.2568 91.9112 31.0834C92.6858 29.91 94.8092 29.9452 96.6538 31.162Z" fill="#FFB6B6"/>
<path d="M134.353 26.3249C139.463 23.1925 144.597 30.366 140.054 34.2744L140.039 34.2877L121.886 51.3548L100.161 40.6308L102.309 34.8406L119.14 41.5055L131.766 28.4032C132.645 27.5235 133.51 26.8418 134.353 26.3249Z" fill="#1d4ed8"/>
<path d="M26.7382 54.822C26.3161 54.822 25.9729 55.1651 25.9729 55.587V67.444C25.9729 67.8659 26.3161 68.209 26.7382 68.209C27.1602 68.209 27.5034 67.8659 27.5034 67.444V55.587C27.5034 55.1651 27.1602 54.822 26.7382 54.822Z" fill="#3F3D56"/>
<path d="M34.2383 66.2472C36.8721 66.2472 39.0072 64.1579 39.0072 61.5806C39.0072 59.0034 36.8721 56.9141 34.2383 56.9141C31.6046 56.9141 29.4695 59.0034 29.4695 61.5806C29.4695 64.1579 31.6046 66.2472 34.2383 66.2472Z" fill="#1d4ed8"/>
<path d="M72.468 59.9842H46.7992C45.9186 59.9842 45.2021 59.268 45.2021 58.3877C45.2021 57.5075 45.9186 56.7913 46.7992 56.7913H72.468C73.3486 56.7913 74.0651 57.5075 74.0651 58.3877C74.0651 59.268 73.3486 59.9842 72.468 59.9842Z" fill="#F2F2F2"/>
<path d="M92.5 65.3875H46.7992C45.9186 65.3875 45.2021 64.6713 45.2021 63.791C45.2021 62.9108 45.9186 62.1946 46.7992 62.1946H92.5C93.3806 62.1946 94.0971 62.9108 94.0971 63.791C94.0971 64.6713 93.3806 65.3875 92.5 65.3875Z" fill="#F2F2F2"/>
<path d="M5.37528 91.4838C8.00904 91.4838 10.1441 89.3945 10.1441 86.8172C10.1441 84.2399 8.00904 82.1506 5.37528 82.1506C2.74153 82.1506 0.606445 84.2399 0.606445 86.8172C0.606445 89.3945 2.74153 91.4838 5.37528 91.4838Z" fill="#1d4ed8"/>
<path d="M43.605 85.2208H17.9362C17.0556 85.2208 16.3391 84.5045 16.3391 83.6243C16.3391 82.744 17.0556 82.0278 17.9362 82.0278H43.605C44.4856 82.0278 45.202 82.744 45.202 83.6243C45.202 84.5045 44.4856 85.2208 43.605 85.2208Z" fill="#F2F2F2"/>
<path d="M50.1653 106.787C52.7991 106.787 54.9342 104.697 54.9342 102.12C54.9342 99.5429 52.7991 97.4536 50.1653 97.4536C47.5316 97.4536 45.3965 99.5429 45.3965 102.12C45.3965 104.697 47.5316 106.787 50.1653 106.787Z" fill="#1d4ed8"/>
<path d="M108.427 105.927H62.7262C61.8456 105.927 61.1292 105.211 61.1292 104.331C61.1292 103.451 61.8456 102.734 62.7262 102.734H108.427C109.308 102.734 110.024 103.451 110.024 104.331C110.024 105.211 109.308 105.927 108.427 105.927Z" fill="#F2F2F2"/>
<path d="M97.1365 19.5299C99.7703 19.5299 101.905 17.4406 101.905 14.8633C101.905 12.2861 99.7703 10.1968 97.1365 10.1968C94.5028 10.1968 92.3677 12.2861 92.3677 14.8633C92.3677 17.4406 94.5028 19.5299 97.1365 19.5299Z" fill="#1d4ed8"/>
<path d="M184.917 97.7626C187.55 97.7626 189.685 95.6733 189.685 93.096C189.685 90.5187 187.55 88.4294 184.917 88.4294C182.283 88.4294 180.148 90.5187 180.148 93.096C180.148 95.6733 182.283 97.7626 184.917 97.7626Z" fill="#1d4ed8"/>
</g>
<defs>
<clipPath id="clip0_595_14942">
<rect width="214" height="178" fill="white" transform="translate(0.606445)"/>
</clipPath>
</defs>
</svg>
